<svg xmlns="http://www.w3.org/2000/svg" viewBox="0 0 800 200" width="800" height="200">
<defs>
<clipPath id="b-clip"><rect width="800" height="200" rx="16"/></clipPath>
<linearGradient id="b-sky" x1="0" y1="0" x2="0" y2="1"><stop offset="0%" stop-color="#0a0a11"/><stop offset="60%" stop-color="#18141d"/><stop offset="100%" stop-color="#3a2328"/></linearGradient>
<linearGradient id="b-water" x1="0" y1="0" x2="0" y2="1"><stop offset="0%" stop-color="#17434b"/><stop offset="40%" stop-color="#0d2830"/><stop offset="100%" stop-color="#060d12"/></linearGradient>
<linearGradient id="b-fade" x1="0" y1="0" x2="0" y2="1"><stop offset="0%" stop-color="#060d12" stop-opacity="0"/><stop offset="100%" stop-color="#060d12" stop-opacity="0.9"/></linearGradient>
<pattern id="b-rope" width="8" height="5" patternUnits="userSpaceOnUse"><rect x="3.6" width="0.8" height="5" fill="#6d5c45"/><ellipse cx="2.9" cy="1.6" rx="1.55" ry="2.5" transform="rotate(22 2.9 1.6)" fill="#1d2433"/><ellipse cx="5.1" cy="4" rx="1.55" ry="2.5" transform="rotate(-22 5.1 4)" fill="#252e42"/><ellipse cx="2.6" cy="1.2" rx="0.4" ry="1.2" transform="rotate(22 2.6 1.2)" fill="#56688a"/><ellipse cx="4.8" cy="3.6" rx="0.4" ry="1.2" transform="rotate(-22 4.8 3.6)" fill="#56688a"/></pattern>
<filter id="b-blur40" x="-100%" y="-200%" width="300%" height="500%"><feGaussianBlur stdDeviation="40"/></filter>
<filter id="b-blur8" x="-100%" y="-100%" width="300%" height="300%"><feGaussianBlur stdDeviation="8"/></filter>
</defs>
<g clip-path="url(#b-clip)">
<rect width="800" height="200" fill="url(#b-sky)"/>
<ellipse cx="574" cy="132" rx="280" ry="44" fill="#e8913f" opacity="0.38" filter="url(#b-blur40)"/>
<circle cx="614" cy="128" r="20" fill="#f2a24e" opacity="0.5" filter="url(#b-blur8)"/>
<circle cx="614" cy="128" r="12" fill="#f6b55f"/>
<path d="M0,136 L0,118 C50,112 96,106 150,110 C200,113 230,120 280,124 C330,127 360,129 420,131 L420,136 Z" fill="#1d141a"/>
<path d="M0,136 L0,124 C60,120 120,121 170,125 C210,128 250,131 300,133 L300,136 Z" fill="#150e13"/>
<path d="M470,136 C520,130 560,126 610,124 C650,122 670,125 690,127 L800,127 L800,136 Z" fill="#150e13"/>
<path d="M640,136 C680,131 720,129 760,126 C780,125 790,124 800,124 L800,136 Z" fill="#110b0f"/>
<rect x="0" y="136" width="800" height="64" fill="url(#b-water)"/>
<rect x="0" y="136" width="800" height="1" fill="#f6b55f" opacity="0.45"/>
<g fill="#f6b55f" opacity="0.55"><rect x="598" y="139" width="32" height="1.2" rx=".6"/><rect x="604" y="143" width="20" height="1" rx=".5"/><rect x="609" y="147" width="10" height=".8" rx=".4"/></g>
<g fill="#7fd1c6" opacity="0.05"><polygon points="130,136 160,136 118,200 70,200"/><polygon points="420,136 444,136 432,200 388,200"/></g>
<g opacity="1"><rect x="40" y="139" width="8" height="51.2" fill="url(#b-rope)"/><rect x="43.6" y="131" width=".8" height="8" fill="#6d5c45"/><rect x="48" y="139" width="8" height="53.4" fill="url(#b-rope)"/><rect x="51.6" y="131" width=".8" height="8" fill="#6d5c45"/><rect x="56" y="139" width="8" height="54.3" fill="url(#b-rope)"/><rect x="59.6" y="131" width=".8" height="8" fill="#6d5c45"/><rect x="64" y="139" width="8" height="57" fill="url(#b-rope)"/><rect x="67.6" y="131" width=".8" height="8" fill="#6d5c45"/><rect x="72" y="139" width="8" height="53.3" fill="url(#b-rope)"/><rect x="75.6" y="131" width=".8" height="8" fill="#6d5c45"/><rect x="80" y="139" width="8" height="56.6" fill="url(#b-rope)"/><rect x="83.6" y="131" width=".8" height="8" fill="#6d5c45"/><rect x="88" y="139" width="8" height="40.5" fill="url(#b-rope)"/><rect x="91.6" y="131" width=".8" height="8" fill="#6d5c45"/><rect x="96" y="139" width="8" height="48.4" fill="url(#b-rope)"/><rect x="99.6" y="131" width=".8" height="8" fill="#6d5c45"/><rect x="104" y="139" width="8" height="57" fill="url(#b-rope)"/><rect x="107.6" y="131" width=".8" height="8" fill="#6d5c45"/><rect x="112" y="139" width="8" height="51.7" fill="url(#b-rope)"/><rect x="115.6" y="131" width=".8" height="8" fill="#6d5c45"/><rect x="120" y="139" width="8" height="56.2" fill="url(#b-rope)"/><rect x="123.6" y="131" width=".8" height="8" fill="#6d5c45"/><rect x="128" y="139" width="8" height="42" fill="url(#b-rope)"/><rect x="131.6" y="131" width=".8" height="8" fill="#6d5c45"/><rect x="136" y="139" width="8" height="48.4" fill="url(#b-rope)"/><rect x="139.6" y="131" width=".8" height="8" fill="#6d5c45"/><rect x="144" y="139" width="8" height="44.4" fill="url(#b-rope)"/><rect x="147.6" y="131" width=".8" height="8" fill="#6d5c45"/><rect x="152" y="139" width="8" height="49.8" fill="url(#b-rope)"/><rect x="155.6" y="131" width=".8" height="8" fill="#6d5c45"/><rect x="45.8" y="133" width="22" height="8" rx="4" fill="#2a3341" stroke="#9a7450" stroke-width=".8"/><rect x="89" y="133" width="22" height="8" rx="4" fill="#2a3341" stroke="#9a7450" stroke-width=".8"/><rect x="132.2" y="133" width="22" height="8" rx="4" fill="#2a3341" stroke="#9a7450" stroke-width=".8"/><rect x="36" y="129" width="128" height="3" fill="#463323"/><rect x="36" y="129" width="128" height=".8" fill="#e6b070"/><rect x="39.4" y="127" width="1.3" height="5" fill="#463323"/><rect x="63.4" y="127" width="1.3" height="5" fill="#463323"/><rect x="87.4" y="127" width="1.3" height="5" fill="#463323"/><rect x="111.4" y="127" width="1.3" height="5" fill="#463323"/><rect x="135.4" y="127" width="1.3" height="5" fill="#463323"/><rect x="159.4" y="127" width="1.3" height="5" fill="#463323"/><path d="M123,129 v-8 l7,-4 l7,4 v8 Z" fill="#3b2a25"/><rect x="128" y="123" width="3" height="3" fill="#f6b55f" opacity=".75"/></g>
<g opacity="0.85"><rect x="250" y="139" width="8" height="40.3" fill="url(#b-rope)"/><rect x="253.6" y="131" width=".8" height="8" fill="#6d5c45"/><rect x="258" y="139" width="8" height="32.2" fill="url(#b-rope)"/><rect x="261.6" y="131" width=".8" height="8" fill="#6d5c45"/><rect x="266" y="139" width="8" height="35.1" fill="url(#b-rope)"/><rect x="269.6" y="131" width=".8" height="8" fill="#6d5c45"/><rect x="274" y="139" width="8" height="36" fill="url(#b-rope)"/><rect x="277.6" y="131" width=".8" height="8" fill="#6d5c45"/><rect x="282" y="139" width="8" height="45.2" fill="url(#b-rope)"/><rect x="285.6" y="131" width=".8" height="8" fill="#6d5c45"/><rect x="290" y="139" width="8" height="43" fill="url(#b-rope)"/><rect x="293.6" y="131" width=".8" height="8" fill="#6d5c45"/><rect x="298" y="139" width="8" height="34.3" fill="url(#b-rope)"/><rect x="301.6" y="131" width=".8" height="8" fill="#6d5c45"/><rect x="306" y="139" width="8" height="43.5" fill="url(#b-rope)"/><rect x="309.6" y="131" width=".8" height="8" fill="#6d5c45"/><rect x="314" y="139" width="8" height="34" fill="url(#b-rope)"/><rect x="317.6" y="131" width=".8" height="8" fill="#6d5c45"/><rect x="322" y="139" width="8" height="40.9" fill="url(#b-rope)"/><rect x="325.6" y="131" width=".8" height="8" fill="#6d5c45"/><rect x="330" y="139" width="8" height="33.8" fill="url(#b-rope)"/><rect x="333.6" y="131" width=".8" height="8" fill="#6d5c45"/><rect x="251.3" y="133" width="22" height="8" rx="4" fill="#2a3341" stroke="#9a7450" stroke-width=".8"/><rect x="283" y="133" width="22" height="8" rx="4" fill="#2a3341" stroke="#9a7450" stroke-width=".8"/><rect x="314.7" y="133" width="22" height="8" rx="4" fill="#2a3341" stroke="#9a7450" stroke-width=".8"/><rect x="246" y="129" width="96" height="3" fill="#463323"/><rect x="246" y="129" width="96" height=".8" fill="#e6b070"/><rect x="249.4" y="127" width="1.3" height="5" fill="#463323"/><rect x="273.4" y="127" width="1.3" height="5" fill="#463323"/><rect x="297.4" y="127" width="1.3" height="5" fill="#463323"/><rect x="321.4" y="127" width="1.3" height="5" fill="#463323"/></g>
<g opacity="0.92"><rect x="472" y="139" width="8" height="36" fill="url(#b-rope)"/><rect x="475.6" y="131" width=".8" height="8" fill="#6d5c45"/><rect x="480" y="139" width="8" height="50.1" fill="url(#b-rope)"/><rect x="483.6" y="131" width=".8" height="8" fill="#6d5c45"/><rect x="488" y="139" width="8" height="39.4" fill="url(#b-rope)"/><rect x="491.6" y="131" width=".8" height="8" fill="#6d5c45"/><rect x="496" y="139" width="8" height="39.5" fill="url(#b-rope)"/><rect x="499.6" y="131" width=".8" height="8" fill="#6d5c45"/><rect x="504" y="139" width="8" height="51.9" fill="url(#b-rope)"/><rect x="507.6" y="131" width=".8" height="8" fill="#6d5c45"/><rect x="512" y="139" width="8" height="50.1" fill="url(#b-rope)"/><rect x="515.6" y="131" width=".8" height="8" fill="#6d5c45"/><rect x="520" y="139" width="8" height="40.7" fill="url(#b-rope)"/><rect x="523.6" y="131" width=".8" height="8" fill="#6d5c45"/><rect x="528" y="139" width="8" height="51.6" fill="url(#b-rope)"/><rect x="531.6" y="131" width=".8" height="8" fill="#6d5c45"/><rect x="536" y="139" width="8" height="44.7" fill="url(#b-rope)"/><rect x="539.6" y="131" width=".8" height="8" fill="#6d5c45"/><rect x="544" y="139" width="8" height="47" fill="url(#b-rope)"/><rect x="547.6" y="131" width=".8" height="8" fill="#6d5c45"/><rect x="552" y="139" width="8" height="39.3" fill="url(#b-rope)"/><rect x="555.6" y="131" width=".8" height="8" fill="#6d5c45"/><rect x="560" y="139" width="8" height="51.2" fill="url(#b-rope)"/><rect x="563.6" y="131" width=".8" height="8" fill="#6d5c45"/><rect x="568" y="139" width="8" height="47.2" fill="url(#b-rope)"/><rect x="571.6" y="131" width=".8" height="8" fill="#6d5c45"/><rect x="475.6" y="133" width="22" height="8" rx="4" fill="#2a3341" stroke="#9a7450" stroke-width=".8"/><rect x="513" y="133" width="22" height="8" rx="4" fill="#2a3341" stroke="#9a7450" stroke-width=".8"/><rect x="550.4" y="133" width="22" height="8" rx="4" fill="#2a3341" stroke="#9a7450" stroke-width=".8"/><rect x="468" y="129" width="112" height="3" fill="#463323"/><rect x="468" y="129" width="112" height=".8" fill="#e6b070"/><rect x="471.4" y="127" width="1.3" height="5" fill="#463323"/><rect x="495.4" y="127" width="1.3" height="5" fill="#463323"/><rect x="519.4" y="127" width="1.3" height="5" fill="#463323"/><rect x="543.4" y="127" width="1.3" height="5" fill="#463323"/><rect x="567.4" y="127" width="1.3" height="5" fill="#463323"/><path d="M496.2,129 v-8 l7,-4 l7,4 v8 Z" fill="#3b2a25"/><rect x="501.2" y="123" width="3" height="3" fill="#f6b55f" opacity=".75"/></g>
<g opacity="1"><rect x="648" y="139" width="8" height="60.3" fill="url(#b-rope)"/><rect x="651.6" y="131" width=".8" height="8" fill="#6d5c45"/><rect x="656" y="139" width="8" height="58.9" fill="url(#b-rope)"/><rect x="659.6" y="131" width=".8" height="8" fill="#6d5c45"/><rect x="664" y="139" width="8" height="47.6" fill="url(#b-rope)"/><rect x="667.6" y="131" width=".8" height="8" fill="#6d5c45"/><rect x="672" y="139" width="8" height="48.8" fill="url(#b-rope)"/><rect x="675.6" y="131" width=".8" height="8" fill="#6d5c45"/><rect x="680" y="139" width="8" height="45.1" fill="url(#b-rope)"/><rect x="683.6" y="131" width=".8" height="8" fill="#6d5c45"/><rect x="688" y="139" width="8" height="44.8" fill="url(#b-rope)"/><rect x="691.6" y="131" width=".8" height="8" fill="#6d5c45"/><rect x="696" y="139" width="8" height="43.2" fill="url(#b-rope)"/><rect x="699.6" y="131" width=".8" height="8" fill="#6d5c45"/><rect x="704" y="139" width="8" height="47.7" fill="url(#b-rope)"/><rect x="707.6" y="131" width=".8" height="8" fill="#6d5c45"/><rect x="712" y="139" width="8" height="53.4" fill="url(#b-rope)"/><rect x="715.6" y="131" width=".8" height="8" fill="#6d5c45"/><rect x="720" y="139" width="8" height="42.1" fill="url(#b-rope)"/><rect x="723.6" y="131" width=".8" height="8" fill="#6d5c45"/><rect x="728" y="139" width="8" height="54.8" fill="url(#b-rope)"/><rect x="731.6" y="131" width=".8" height="8" fill="#6d5c45"/><rect x="736" y="139" width="8" height="48.4" fill="url(#b-rope)"/><rect x="739.6" y="131" width=".8" height="8" fill="#6d5c45"/><rect x="744" y="139" width="8" height="47.9" fill="url(#b-rope)"/><rect x="747.6" y="131" width=".8" height="8" fill="#6d5c45"/><rect x="752" y="139" width="8" height="57.5" fill="url(#b-rope)"/><rect x="755.6" y="131" width=".8" height="8" fill="#6d5c45"/><rect x="760" y="139" width="8" height="51.1" fill="url(#b-rope)"/><rect x="763.6" y="131" width=".8" height="8" fill="#6d5c45"/><rect x="768" y="139" width="8" height="48" fill="url(#b-rope)"/><rect x="771.6" y="131" width=".8" height="8" fill="#6d5c45"/><rect x="654.9" y="133" width="22" height="8" rx="4" fill="#2a3341" stroke="#9a7450" stroke-width=".8"/><rect x="701" y="133" width="22" height="8" rx="4" fill="#2a3341" stroke="#9a7450" stroke-width=".8"/><rect x="747.1" y="133" width="22" height="8" rx="4" fill="#2a3341" stroke="#9a7450" stroke-width=".8"/><rect x="644" y="129" width="136" height="3" fill="#463323"/><rect x="644" y="129" width="136" height=".8" fill="#e6b070"/><rect x="647.4" y="127" width="1.3" height="5" fill="#463323"/><rect x="671.4" y="127" width="1.3" height="5" fill="#463323"/><rect x="695.4" y="127" width="1.3" height="5" fill="#463323"/><rect x="719.4" y="127" width="1.3" height="5" fill="#463323"/><rect x="743.4" y="127" width="1.3" height="5" fill="#463323"/><rect x="767.4" y="127" width="1.3" height="5" fill="#463323"/></g>
<rect x="0" y="152" width="800" height="48" fill="url(#b-fade)"/>
<g fill="none" stroke="#c9b9a8" stroke-width="1" stroke-linecap="round" opacity=".45"><path d="M140,44 q4,-4 8,0 q4,-4 8,0"/><path d="M162,56 q3,-3 6,0 q3,-3 6,0"/><path d="M640,40 q3,-3 6,0 q3,-3 6,0"/></g>
<rect width="800" height="2" fill="#4fb3a9" opacity="0.6"/>
<text x="400" y="64" text-anchor="middle" font-family="system-ui, -apple-system, 'Segoe UI', Helvetica, Arial, sans-serif" font-size="40" fill="#fff" font-weight="700" letter-spacing="1">awesome-galicia</text>
<rect x="364" y="76" width="72" height="2" rx="1" fill="#f2a24e" opacity="0.75"/>
<text x="400" y="100" text-anchor="middle" font-family="system-ui, -apple-system, 'Segoe UI', Helvetica, Arial, sans-serif" font-size="13" fill="rgba(255,255,255,0.62)" font-weight="400" letter-spacing="3">SOFTWARE OPEN SOURCE PARA GALICIA</text>
</g></svg>
